<svg version="1.2" xmlns="http://www.w3.org/2000/svg" viewBox="0 0 1536 768" width="1536" height="768">
	<style>
		.s0 { opacity: .97;fill: #ffffff } 
	</style>
	<path id="Path 0" class="s0" d="m788.89 293.44c-0.21 0.23-3.54 0.68-7.39 1.02-3.85 0.33-11.5 1.52-17 2.62-5.5 1.11-14.73 3.63-20.5 5.59-5.77 1.96-15.67 6.13-22 9.27-6.33 3.13-14.42 7.66-18 10.07-3.58 2.41-10.12 8-14.53 12.44-4.42 4.43-9.23 10.07-10.68 12.55-1.46 2.48-3.41 7.43-4.33 11-1 3.85-1.51 8.74-1.27 12 0.23 3.02 1.57 7.98 2.97 11 1.41 3.02 4.54 7.72 6.95 10.44 2.41 2.72 8.34 7.44 13.16 10.5 4.82 3.06 8.42 5.9 8 6.31-0.42 0.41 0.13 0.67 1.23 0.58 1.1-0.1 5.38 1 9.5 2.44 4.13 1.44 12.67 3.54 19 4.68 6.33 1.13 14.2 2.05 17.5 2.03 3.3-0.03 11.17-0.65 17.5-1.4 7.22-0.85 15.03-2.55 21-4.57 5.78-1.96 12.63-5.26 17.5-8.45 4.4-2.87 9.8-7.24 12-9.7 2.2-2.47 4.85-6.26 5.88-8.42 1.04-2.17 2.11-5.29 2.4-6.94 0.28-1.65-0.12-5.24-0.89-7.97-0.96-3.45-2.77-6.36-5.89-9.5-2.48-2.49-6.98-5.72-10-7.17-3.02-1.45-8.2-3.19-11.5-3.87-3.62-0.74-8.57-0.96-12.5-0.56-3.58 0.36-9.55 1.43-13.27 2.36-3.72 0.94-6.65 2.08-6.5 2.53 0.15 0.45 2.75 0.96 5.77 1.12 3.45 0.18 4.76-0.01 3.5-0.51-1.31-0.51 0.25-0.8 4.5-0.82 3.58-0.02 9.2 0.57 12.5 1.31 3.3 0.74 7.58 2.04 9.5 2.9 1.92 0.86 4.74 2.71 6.25 4.12 1.51 1.41 3.2 3.69 3.75 5.06 0.55 1.38 1 3.85 1 5.5 0 1.65-1.06 5.14-2.36 7.75-1.3 2.61-4.56 6.66-7.25 8.99-2.69 2.33-8.04 5.77-11.89 7.64-3.85 1.88-10.15 4.37-14 5.54-4.34 1.32-12.32 2.53-21 3.17-7.7 0.57-15.46 0.78-17.25 0.47-2.23-0.38-3.25-0.17-3.27 0.69-0.01 0.87-0.23 0.91-0.75 0.15-0.4-0.61-3.88-1.68-7.73-2.39-3.85-0.7-9.7-2.29-13-3.53-3.3-1.24-7.92-3.32-10.26-4.62-2.34-1.3-4.03-2.7-3.75-3.11 0.28-0.41 0.17-0.54-0.24-0.28-0.41 0.26-2.7-0.98-5.07-2.75-2.38-1.77-5.62-5.24-7.2-7.72-1.57-2.48-3.37-6.75-3.98-9.5-0.62-2.75-0.84-7.25-0.5-10 0.35-2.75 1.91-7.7 3.47-11 2.08-4.38 5.23-8.29 11.71-14.5 5.04-4.83 12.3-10.53 16.84-13.2 4.39-2.58 11.58-6.36 15.98-8.38 4.4-2.03 12.5-5.15 18-6.93 5.5-1.78 14.5-4.18 20-5.33 5.5-1.15 14.5-2.58 20-3.18 5.5-0.6 15.17-1.36 21.5-1.67 6.33-0.32 16.79-0.07 23.25 0.55 6.46 0.63 11.57 1.48 11.35 1.89-0.23 0.41 1.57 0.75 4 0.75 2.42 0 4.4-0.45 4.4-1 0-0.55-2.36-1.6-5.25-2.34-2.89-0.74-8.17-2-11.75-2.81-3.58-0.8-8.52-1.64-11-1.87-2.48-0.22-11.97-0.64-21.11-0.92-9.13-0.29-16.78-0.34-17-0.12zm17.61 24.56c-4.95 0.48-13.73 1.84-19.5 3.01-5.77 1.18-14.77 3.5-20 5.16-5.23 1.67-14.11 5.23-19.75 7.93-7.65 3.65-11.92 6.49-16.84 11.15-4.42 4.19-7.71 8.47-10 13-2.4 4.74-3.25 7.57-2.86 9.5 0.3 1.51 0.97 4.44 1.5 6.5 0.55 2.16 2.58 5.34 4.79 7.5 2.11 2.06 6.5 5.17 9.75 6.9 3.25 1.73 8.39 3.69 11.41 4.36 3.64 0.8 9.23 1 16.5 0.57 6.05-0.35 12.24-0.74 13.75-0.86 1.51-0.12 2.75-0.56 2.75-0.97 0-0.41 0.45-0.52 1-0.25 0.55 0.27 1.11 0.16 1.25-0.25 0.14-0.41 3.35-2.32 7.14-4.25 3.78-1.93 6.77-3.95 6.65-4.5-0.13-0.55-0.53-0.89-0.89-0.75-0.36 0.14-4.02 1.49-8.15 2.98-6.76 2.46-8.83 2.73-21 2.75-10.77 0.02-14.41-0.35-18-1.8-2.48-1-6.24-3.02-8.37-4.5-2.13-1.47-4.72-4.37-5.75-6.43-1.04-2.06-1.87-4.76-1.86-6 0.01-1.24 0.57-4.02 1.25-6.18 0.67-2.17 2.47-5.2 3.98-6.75 1.51-1.55 2.75-3.27 2.75-3.82 0-0.55 2.59-2.72 5.75-4.81 3.16-2.1 8.45-5.08 11.75-6.63 3.3-1.55 8.92-3.84 12.5-5.1 3.58-1.26 12.13-3.51 19-5 9.81-2.13 16.16-2.82 29.5-3.22 9.64-0.29 21.76-0.01 28 0.63 6.05 0.63 15.61 2.26 21.25 3.63 5.92 1.45 14.58 4.57 20.5 7.4 7.21 3.44 12.18 6.66 16.75 10.85 3.58 3.27 7.83 8.38 9.45 11.35 2.44 4.46 3.03 6.87 3.39 13.9 0.32 6.42-0.01 9.84-1.37 14-1 3.02-3.25 7.98-5 11-1.76 3.02-7.87 10.28-13.58 16.11-5.72 5.84-13.2 12.48-16.64 14.75-3.44 2.28-6.25 4.59-6.25 5.14 0 0.55 0.23 1 0.5 1 0.27 0 3.31-1.56 6.75-3.46 3.44-1.9 6.6-3.14 7.03-2.75 0.43 0.39 0.75 0.26 0.71-0.29-0.03-0.55 3.84-3.93 8.61-7.5 4.78-3.57 11.35-9.43 14.62-13 3.27-3.57 7.4-8.75 9.18-11.5 1.78-2.75 4.1-7.25 5.15-10 1.38-3.62 1.91-7.62 1.93-14.5 0.02-8.2-0.34-10.25-2.59-15-1.44-3.02-4.59-7.71-7-10.4-2.41-2.7-7.09-6.83-10.39-9.19-3.3-2.36-10.27-6.16-15.5-8.44-5.23-2.29-11.3-4.74-13.5-5.47-2.2-0.72-6.48-2.01-9.5-2.88-3.02-0.86-10-2.25-15.5-3.09-5.5-0.84-16.3-1.72-24-1.96-7.7-0.24-18.05-0.05-23 0.43zm-149.25 19.5c-2.89 1.92-7.74 6.09-10.77 9.25-3.04 3.16-6.81 8.23-8.38 11.25-1.57 3.02-3.42 7.98-4.11 11-0.73 3.18-0.99 7.61-0.61 10.5 0.35 2.75 1.76 7.36 3.13 10.25 1.37 2.89 4.63 7.55 7.24 10.36 2.61 2.8 7.9 7.21 11.75 9.79 3.85 2.59 10.71 6.14 15.25 7.9 4.54 1.76 8.7 3.2 9.25 3.2 0.55 0 1-0.34 1-0.75 0-0.41-2.11-1.87-4.68-3.25-2.58-1.37-8.09-5-12.25-8.05-4.16-3.06-9.28-7.56-11.38-10-2.1-2.45-5.13-7.15-6.75-10.45-1.73-3.54-3.19-8.46-3.56-12-0.46-4.55-0.11-7.69 1.46-13 1.22-4.1 3.86-9.53 6.37-13.1 2.36-3.36 6.77-8.26 9.79-10.89 3.02-2.64 5.69-4.95 5.92-5.15 0.23-0.2-0.45-0.36-1.5-0.36-1.06-0.01-4.28 1.57-7.17 3.5zm166.58 9.59c-1.07 0.71-1.03 0.89 0.17 0.91 0.83 0.02 6.23 2.32 12 5.11 8.19 3.97 11.85 6.44 16.61 11.24 4.01 4.03 6.33 7.27 6.75 9.4 0.35 1.79 1.2 3.26 1.89 3.27 0.77 0 0.87 0.29 0.25 0.75-0.55 0.4-1.08 3.43-1.17 6.73-0.09 3.3-0.96 8.02-1.94 10.5-0.97 2.48-3.6 6.47-5.83 8.87-2.23 2.41-6.76 6.5-10.06 9.11-3.3 2.61-9.37 6.56-13.5 8.8-4.12 2.23-13.12 6.07-20 8.54-6.87 2.47-18.12 5.87-25 7.56-6.87 1.69-16.33 3.56-21 4.15-4.67 0.59-12.55 1.49-17.5 2-4.95 0.5-15.52 0.92-23.5 0.93-7.98 0.01-21.48-0.63-30-1.43-9.83-0.91-20.08-2.6-28-4.61-6.87-1.75-14.3-3.95-16.5-4.9-2.2-0.95-6.7-3.01-10-4.59-3.3-1.57-8.48-4.49-11.5-6.48-3.02-2-6.93-5.39-8.67-7.54-1.74-2.15-4.11-6.05-5.25-8.66-1.14-2.61-2.42-4.49-2.83-4.16-0.41 0.32-0.75 2.08-0.75 3.92 0 1.83 0.23 3.13 0.5 2.9 0.27-0.24 1.22 1.26 2.1 3.33 0.88 2.07 3.61 6.24 6.06 9.26 2.47 3.04 8.01 7.89 12.4 10.84 4.37 2.94 11.09 6.82 14.94 8.63 3.85 1.81 11.95 4.94 18 6.95 7.8 2.59 15.51 4.25 26.5 5.68 8.52 1.12 23.15 2.28 32.5 2.59 12.28 0.41 21.86 0.09 34.5-1.14 9.63-0.94 21.55-2.55 26.5-3.57 4.95-1.03 13.05-3.05 18-4.5 4.95-1.44 13.73-4.56 19.5-6.92 5.77-2.36 13.2-5.65 16.5-7.3 3.3-1.66 9.6-5.71 14-9.01 4.4-3.3 9.91-8.09 12.25-10.63 2.34-2.54 5.83-7.88 7.76-11.87 2.97-6.15 3.5-8.31 3.52-14.25 0.01-5.72-0.52-8.1-2.91-13-1.88-3.86-5.06-7.96-8.89-11.5-3.28-3.02-8.83-6.96-12.35-8.73-3.51-1.78-10.51-4.32-15.55-5.65-5.69-1.49-9.68-2.07-10.5-1.53zm26.69 99.42c-3.29 1.28-5.88 2.02-5.76 1.66 0.11-0.37-0.12-0.18-0.53 0.42-0.4 0.6-3.88 2.24-7.73 3.66-3.85 1.42-10.6 3.72-15 5.13-4.4 1.4-14.3 4.11-22 6.03-7.7 1.91-17.49 4.18-21.75 5.03-4.26 0.86-9.33 1.56-11.25 1.56-1.92 0-3.32 0.34-3.11 0.75 0.22 0.41-0.79 0.58-2.25 0.37-1.45-0.21-3.09 0.22-3.64 0.95-0.82 1.09 1.2 1.19 11.5 0.56 6.88-0.42 13.17-0.78 14-0.81 0.83-0.03 6.9-1.12 13.5-2.43 6.6-1.3 13.13-2.81 14.5-3.34 1.38-0.52 4.41-1.43 6.75-2 2.34-0.58 4.92-1.73 5.75-2.55 0.83-0.82 1.5-1.05 1.5-0.5 0 0.57 1.19 0.39 2.75-0.41 1.51-0.77 5.34-2.35 8.5-3.5 3.16-1.15 5.98-2.77 6.25-3.59 0.27-0.82 1.06-1.29 1.75-1.03 0.69 0.27 3.91-0.97 7.16-2.75 3.25-1.77 6-3.78 6.12-4.47 0.11-0.69-0.07-1.21-0.41-1.16-0.34 0.05-3.31 1.13-6.6 2.42z"/>
</svg>